<svg width="22" height="22" viewBox="0 0 22 22" fill="none" xmlns="http://www.w3.org/2000/svg">
<circle cx="11" cy="11" r="10" fill="black" stroke="black" stroke-width="2"/>
<path d="M6.42121 7.17665C6.1402 6.93411 6 6.63403 6 6.27699C6 5.91995 6.1402 5.60635 6.42121 5.36381C6.70221 5.12127 7.06393 5 7.50758 5C7.95124 5 8.2984 5.12127 8.57879 5.36381C8.8598 5.60635 9 5.91093 9 6.27699C9 6.64306 8.8598 6.93411 8.57879 7.17665C8.29779 7.41919 7.94092 7.54045 7.50758 7.54045C7.07424 7.54045 6.70221 7.41919 6.42121 7.17665ZM8.7633 8.56758V16H6.2367V8.56758H8.7633Z" fill="white"/>
<path d="M16.2622 8.89999C16.7539 9.5006 17 10.3256 17 11.3756V16H14.856V11.7018C14.856 11.1726 14.7341 10.761 14.4901 10.4677C14.2462 10.1744 13.9182 10.028 13.5062 10.028C13.0942 10.028 12.7663 10.175 12.5223 10.4677C12.2784 10.761 12.1564 11.1726 12.1564 11.7018V16H10V8.08475H12.1564V9.13476C12.3749 8.78476 12.6693 8.50854 13.0395 8.30488C13.4092 8.10183 13.8255 8 14.2879 8C15.1119 8 15.77 8.3006 16.2617 8.9006L16.2622 8.89999Z" fill="white"/>
</svg>
